<?xml version="1.0" standalone="no"?>
<!DOCTYPE svg PUBLIC "-//W3C//DTD SVG 20010904//EN"
 "http://www.w3.org/TR/2001/REC-SVG-20010904/DTD/svg10.dtd">
<svg version="1.0" xmlns="http://www.w3.org/2000/svg"
 width="1024.000000pt" height="1536.000000pt" viewBox="0 0 1024.000000 1536.000000"
 preserveAspectRatio="xMidYMid meet">

<g transform="translate(0.000000,1536.000000) scale(0.100000,-0.100000)"
fill="#000000" stroke="none">
<path d="M4907 13608 c-22 -29 -147 -269 -147 -281 0 -7 -218 -406 -244 -447
-13 -19 -63 -98 -113 -175 -50 -77 -96 -151 -103 -165 -7 -14 -53 -85 -101
-158 -49 -73 -89 -135 -89 -138 0 -21 -292 -448 -451 -659 -55 -73 -54 -75 25
-95 67 -17 71 -17 162 5 l93 22 6 -41 c3 -23 7 -209 8 -413 3 -368 1 -392 -28
-364 -6 5 -64 37 -130 71 -66 35 -149 80 -185 100 -91 52 -329 179 -498 267
-115 59 -146 72 -158 62 -8 -6 -14 -19 -14 -28 0 -32 -169 -509 -242 -686 -62
-147 -420 -881 -509 -1043 l-24 -43 25 -19 c43 -34 68 -34 230 -1 85 18 161
33 169 34 10 1 25 -36 50 -128 20 -71 44 -144 53 -161 9 -17 29 -105 43 -195
73 -462 65 -399 100 -714 41 -365 51 -521 35 -553 -37 -72 -78 -83 -110 -29
-11 17 -20 40 -20 49 0 47 -59 11 -89 -55 -11 -23 -30 -52 -44 -65 -22 -21
-26 -21 -52 -8 -35 18 -45 13 -45 -25 0 -31 -25 -40 -48 -17 -20 20 -14 -2 8
-29 11 -15 18 -28 16 -31 -3 -2 -34 -10 -69 -18 -75 -15 -158 -53 -165 -73 -4
-12 7 -13 61 -7 59 6 69 4 88 -15 11 -11 19 -22 17 -24 -3 -4 -73 -22 -208
-54 -164 -39 -204 -59 -350 -172 -110 -85 -176 -157 -206 -223 l-27 -61 7
-395 c3 -217 11 -739 16 -1160 10 -816 12 -857 61 -953 55 -106 114 -151 223
-166 60 -9 74 -15 109 -48 21 -21 46 -54 55 -73 18 -42 26 -207 42 -880 11
-484 19 -574 60 -683 68 -182 202 -221 750 -221 665 1 1720 16 1795 25 6 0 82
-3 170 -7 259 -14 523 -10 736 10 164 16 207 17 265 8 122 -22 481 -36 611
-26 65 6 165 7 223 3 144 -10 716 16 880 41 184 28 245 55 353 159 76 73 135
164 167 256 44 127 50 212 50 700 0 487 7 600 39 663 20 39 73 92 92 92 21 0
100 62 124 98 14 20 37 73 51 116 l25 79 -1 791 c0 435 -3 919 -6 1076 -6 262
-9 296 -35 418 -34 159 -68 230 -151 312 -48 48 -85 72 -217 137 -110 53 -160
83 -160 95 -1 9 -12 29 -25 44 -22 27 -25 27 -63 16 -55 -16 -79 -15 -116 5
-40 23 -45 29 -58 81 -17 62 -81 104 -115 73 -5 -4 -29 -13 -54 -19 -42 -11
-46 -10 -60 10 -8 12 -32 39 -52 59 -21 21 -38 43 -38 49 0 7 -9 24 -20 38
-15 18 -19 34 -15 54 6 25 4 28 -18 28 -14 0 -38 -11 -54 -24 -16 -14 -41 -28
-55 -31 -30 -8 -83 16 -96 43 -15 29 18 412 58 682 62 405 132 873 151 1000
11 80 24 148 27 152 4 3 30 2 57 -2 101 -17 138 -13 170 20 17 18 43 32 64 35
62 10 161 37 166 46 3 4 -95 120 -218 256 -123 136 -248 278 -278 314 -30 37
-103 127 -164 200 -60 74 -132 164 -160 200 -27 37 -80 104 -116 150 -77 99
-184 253 -314 455 l-95 147 0 351 c0 193 3 375 6 404 l7 52 37 0 c37 0 38 1
49 48 6 26 12 65 14 87 2 39 1 40 -53 66 -63 31 -398 148 -432 152 -22 2 -23
-2 -31 -88 -6 -64 -5 -104 5 -140 13 -52 14 -185 3 -345 l-7 -94 -27 31 c-115
135 -332 464 -403 608 -21 44 -60 114 -87 155 -27 41 -97 157 -157 258 -60
100 -128 213 -151 250 -24 37 -55 89 -70 115 -161 281 -221 377 -237 377 -3 0
-16 -15 -29 -32z m-149 -6457 c2 -106 1 -113 -15 -105 -10 4 -60 9 -110 12
l-93 4 0 -234 c0 -128 5 -251 11 -273 19 -75 25 -70 -96 -70 -93 0 -109 2
-105 15 3 8 7 138 10 288 l5 273 -90 -3 c-49 -2 -98 -7 -107 -12 -17 -7 -18 1
-18 108 l0 116 303 -2 302 -3 3 -114z m345 113 c3 -4 1 -16 -5 -27 -6 -12 -13
-83 -16 -159 l-5 -138 101 0 c82 0 101 3 106 16 12 31 5 229 -9 269 -8 22 -15
41 -15 43 0 1 54 2 121 2 l121 0 -8 -27 c-9 -29 -13 -690 -4 -733 l5 -25 -104
-3 c-58 -1 -110 -1 -117 2 -9 4 -9 13 2 43 8 23 13 82 14 151 l0 112 -102 0
-103 0 1 -122 c0 -78 5 -131 13 -146 6 -12 9 -27 6 -32 -3 -6 -55 -10 -117
-10 -110 0 -110 0 -102 23 4 12 9 171 11 354 3 274 1 337 -11 366 -8 20 -12
38 -8 41 7 8 217 8 225 0z m1027 -95 c0 -93 -1 -100 -17 -93 -10 5 -73 10
-140 12 l-123 3 0 -75 0 -76 86 0 c47 0 94 5 105 10 22 12 21 18 19 -95 -2
-86 -4 -95 -22 -77 -7 7 -46 12 -100 12 l-88 0 0 -66 0 -65 118 3 c64 2 125 7
135 12 17 8 18 2 15 -90 l-3 -99 -235 0 c-230 0 -235 0 -230 20 8 35 4 709 -4
738 l-8 27 246 0 246 0 0 -101z m-3747 -844 c-1 -5 -11 -36 -23 -67 -18 -53
-20 -81 -20 -343 l0 -285 140 0 140 0 0 293 c0 283 -1 294 -24 349 -13 32 -21
60 -18 63 3 3 90 5 194 5 207 0 203 1 171 -61 -17 -31 -18 -88 -18 -764 l0
-730 23 -42 c12 -23 22 -45 22 -48 0 -3 -88 -5 -195 -5 -107 0 -195 2 -195 4
0 2 9 23 20 47 18 41 20 67 20 347 l0 302 -141 0 -140 0 3 -297 c3 -287 4
-300 26 -340 12 -23 22 -47 22 -53 0 -6 -65 -10 -190 -10 -104 0 -190 2 -190
4 0 2 9 23 20 47 19 43 20 68 20 764 l0 720 -24 52 c-13 28 -22 54 -18 57 10
11 377 2 375 -9z m1305 1 c157 -42 259 -159 293 -340 13 -69 12 -898 -2 -971
-32 -173 -145 -290 -317 -326 -84 -17 -243 -7 -315 21 -110 42 -189 124 -228
237 -31 87 -42 282 -36 663 3 273 7 346 21 395 49 174 129 265 281 317 63 22
228 24 303 4z m1079 -17 c75 -32 111 -60 151 -119 43 -63 62 -128 75 -249 12
-119 -1 -283 -28 -362 -20 -57 -75 -123 -124 -148 l-37 -19 81 -244 c44 -134
90 -277 103 -318 12 -42 33 -89 47 -105 45 -55 44 -55 -185 -55 -115 0 -210 3
-210 8 0 4 7 16 15 26 24 31 19 66 -47 334 l-62 253 -49 -3 -49 -3 1 -255 c2
-267 1 -259 49 -352 2 -5 -84 -8 -192 -8 -108 0 -196 4 -196 9 0 5 9 29 20 55
20 45 21 60 18 768 l-3 723 -22 38 c-13 21 -23 43 -23 48 0 7 101 9 303 7 299
-3 303 -3 364 -29z m1020 8 c114 -38 191 -120 231 -247 26 -83 24 -381 -2
-469 -22 -71 -85 -150 -136 -171 -16 -7 -30 -17 -30 -22 0 -30 205 -629 225
-660 14 -21 25 -42 25 -48 0 -6 -72 -10 -205 -10 -113 0 -205 3 -205 8 0 4 7
16 15 26 23 31 19 63 -41 300 -79 317 -65 286 -131 286 l-55 0 4 -257 c3 -243
5 -261 26 -304 12 -25 22 -48 22 -52 0 -4 -85 -7 -190 -7 -104 0 -190 2 -190
5 0 3 9 23 20 45 19 38 20 59 20 767 l-1 728 -23 47 c-13 26 -20 50 -17 54 3
3 136 4 296 2 238 -4 299 -7 342 -21z m1084 -6 c114 -44 191 -140 231 -287 20
-75 21 -102 22 -524 0 -507 -4 -540 -75 -650 -71 -111 -170 -160 -339 -168
-61 -2 -129 0 -160 7 -121 25 -215 90 -270 185 -56 99 -62 145 -67 544 -7 501
8 633 85 744 57 81 127 133 222 163 71 23 279 15 351 -14z m950 19 c205 -38
303 -166 324 -425 8 -94 -8 -261 -30 -326 -20 -58 -75 -124 -126 -150 -22 -11
-38 -23 -36 -27 3 -4 48 -140 101 -302 53 -162 110 -319 126 -347 17 -29 30
-55 30 -58 0 -3 -94 -5 -210 -5 -115 0 -210 2 -210 4 0 2 6 19 14 38 18 42 10
85 -63 370 -28 108 -51 199 -51 202 0 3 -20 6 -45 6 -43 0 -44 -1 -51 -36 -4
-20 -5 -136 -2 -258 4 -200 7 -225 26 -265 12 -25 22 -48 22 -53 0 -4 -85 -8
-190 -8 -104 0 -190 3 -190 6 0 4 10 23 23 43 l22 36 0 730 0 730 -22 43 c-13
23 -23 47 -23 52 0 13 490 13 561 0z m-4915 -1913 c3 -8 -4 -37 -16 -66 -18
-48 -20 -73 -20 -336 l0 -285 151 0 151 0 -4 288 -4 287 -26 54 c-15 30 -25
58 -22 63 6 9 397 11 406 3 3 -3 -7 -29 -21 -58 l-26 -52 0 -750 0 -750 28
-56 c15 -31 27 -59 27 -62 0 -8 -404 -9 -412 -1 -3 3 6 26 21 52 l26 47 3 328
3 327 -150 0 -151 0 0 -283 c0 -295 8 -380 41 -433 10 -17 19 -34 19 -38 0 -3
-94 -6 -210 -6 -139 0 -210 4 -210 10 0 6 10 30 23 53 l22 42 0 760 0 761 -27
53 c-16 29 -28 55 -28 57 0 2 90 4 200 4 159 0 202 -3 206 -13z m1356 2 c111
-24 211 -96 261 -188 15 -27 36 -85 48 -128 18 -73 20 -110 20 -558 -1 -398
-3 -490 -16 -538 -56 -214 -206 -327 -436 -327 -213 0 -356 77 -428 230 -47
100 -53 174 -49 695 4 457 4 472 26 529 12 33 33 78 46 101 48 81 159 162 253
184 55 13 214 13 275 0z m870 5 c4 -3 -6 -29 -20 -57 l-27 -51 -3 -536 c-3
-553 3 -678 35 -733 30 -51 68 -72 128 -72 67 0 101 23 135 91 l25 49 0 600 0
601 -27 51 c-14 28 -24 54 -20 57 10 11 402 7 402 -4 0 -6 -10 -30 -22 -53
l-23 -42 -5 -660 c-6 -705 -4 -676 -55 -775 -27 -52 -105 -130 -157 -156 -144
-73 -363 -73 -508 1 -80 41 -154 138 -191 250 -10 30 -14 196 -18 680 l-6 640
-27 54 c-15 30 -25 58 -22 63 6 9 397 11 406 2z m1397 -23 c77 -31 134 -73
176 -131 57 -78 77 -147 79 -270 l1 -105 -145 0 -145 0 -6 71 c-11 123 -54
174 -146 174 -71 0 -110 -21 -134 -73 -50 -110 -5 -223 122 -308 30 -20 100
-66 156 -103 221 -146 302 -284 303 -511 0 -303 -159 -465 -459 -465 -163 0
-259 31 -348 113 -48 44 -93 125 -111 197 -19 77 -26 238 -12 255 10 12 37 14
148 11 76 -2 140 -4 145 -5 4 -1 7 -31 7 -68 1 -85 26 -160 63 -187 39 -29
149 -34 197 -9 51 27 73 72 73 152 0 110 -30 153 -168 238 -222 137 -313 218
-374 332 -43 82 -61 160 -61 271 0 239 99 385 295 437 79 20 276 11 344 -16z
m1181 -140 c0 -155 -7 -200 -26 -170 -3 6 -25 20 -48 30 -35 16 -67 19 -216
19 l-175 0 3 -205 3 -205 117 0 c131 1 193 11 230 40 13 11 29 20 33 20 5 0 9
-88 9 -195 0 -128 -4 -195 -10 -195 -6 0 -24 10 -41 23 -28 20 -43 22 -187 25
l-157 3 0 -230 0 -231 176 0 177 0 57 30 c31 17 59 30 61 30 3 0 3 -80 2 -177
l-3 -178 -407 -3 c-280 -1 -408 1 -408 8 0 6 10 30 23 53 l22 42 0 765 0 765
-26 47 c-15 26 -24 49 -21 52 3 3 187 6 409 6 l403 0 0 -169z"/>
<path d="M3483 6050 c-40 -24 -68 -77 -82 -155 -14 -76 -14 -668 0 -755 20
-128 73 -186 162 -177 65 6 97 32 127 103 25 59 25 61 28 414 4 451 -7 519
-91 570 -41 25 -103 25 -144 0z"/>
<path d="M4450 6049 c0 -2 -1 -111 -3 -242 l-2 -237 65 1 c85 0 129 16 156 57
29 43 47 154 39 239 -15 151 -37 175 -165 181 -50 3 -90 3 -90 1z"/>
<path d="M5480 5809 l0 -242 84 5 c145 7 168 39 174 229 6 206 -25 249 -183
249 l-75 0 0 -241z"/>
<path d="M6602 6050 c-79 -49 -96 -157 -90 -593 5 -342 11 -391 59 -450 43
-56 148 -60 200 -8 55 55 62 103 67 464 5 443 -8 530 -88 585 -42 28 -103 29
-148 2z"/>
<path d="M7595 5995 c-4 -31 -5 -138 -3 -238 l5 -182 59 -3 c84 -4 139 19 167
71 20 37 22 57 22 177 0 118 -3 139 -20 170 -26 43 -67 59 -157 59 l-67 1 -6
-55z"/>
<path d="M4060 4132 c-87 -43 -105 -160 -97 -652 5 -367 11 -411 66 -472 24
-27 36 -32 87 -36 81 -5 120 21 154 103 24 59 24 66 28 415 4 386 -4 504 -39
577 -38 78 -120 105 -199 65z"/>
<path d="M7110 4249 c0 -5 5 -7 10 -4 6 3 10 8 10 11 0 2 -4 4 -10 4 -5 0 -10
-5 -10 -11z"/>
</g>
</svg>
